<svg 
  xmlns="http://www.w3.org/2000/svg" 
  width="32" 
  height="32" 
  viewBox="0 0 24 24" 
  fill="none" 
  stroke="#0ea5e9" 
  stroke-width="2.5" 
  stroke-linecap="round" 
  stroke-linejoin="round"
>
  <path d="M12 21v-3" />
  <path d="M15.5 10c.8 0 1.5-.7 1.5-1.5S16.3 7 15.5 7h-.2C14.6 7 14 7.6 14 8.3v.2" />
  <path d="M17 12c.8 0 1.5-.7 1.5-1.5S17.8 9 17 9h-2" />
  <path d="M19 14c.8 0 1.5-.7 1.5-1.5S19.8 11 19 11h-2" />
  <path d="M21 16c.8 0 1.5-.7 1.5-1.5S21.8 13 21 13h-4" />
  <path d="M3 13c-.8 0-1.5.7-1.5 1.5S2.2 16 3 16h4" />
  <path d="M5 11c-.8 0-1.5.7-1.5 1.5S4.2 14 5 14h2" />
  <path d="M7 9c-.8 0-1.5.7-1.5 1.5S6.2 12 7 12h2" />
  <path d="M8.7 7h.2c.7 0 1.3.6 1.3 1.3V18" />
</svg>